#!OML:ASF C:\ViconDB\ViconDB\414\Spring2016\041811\Spring2016.ASF
:FULLY-SPECIFIED
:DEGREES
202
root 5.5818 18.7642 -41.2583 -179.43 1.84252 -174.866
lowerback -2.97806 3.53863 1.59499
upperback -0.942923 4.73909 2.0567
thorax 0.651361 2.40607 1.38095
lowerneck -15.0364 -6.8242 -13.3117
upperneck 21.6045 -11.7106 16.5623
head 11.3036 -5.19513 6.49266
rclavicle -3.33089e-014 -2.18663e-015
rhumerus -41.6405 19.233 -102.676
rradius 139.543
rwrist 5.55223
rhand -26.2274 -6.78602
rfingers 7.12502
rthumb 0.326146 -36.7655
lclavicle -3.33089e-014 -2.18663e-015
lhumerus -94.5903 -14.9568 104.408
lradius 91.4193
lwrist -6.91207
lhand -35.0664 9.07964
lfingers 7.12502
lthumb -8.20888 38.9002
rfemur 25.4462 -11.7912 21.4666
rtibia 17.5159
rfoot -149.603 -3.83769
rtoes -14.7899
lfemur -34.652 -1.24475 -12.2475
ltibia 43.8746
lfoot -13.4816 -0.0908633
ltoes -7.33045
203
root 5.5588 18.8635 -41.8059 -179.266 1.52535 -175.357
lowerback -3.46264 3.5864 1.11317
upperback -1.11685 4.80208 1.72604
thorax 0.731948 2.4334 1.3389
lowerneck -15.2742 -6.87856 -13.3106
upperneck 22.1714 -11.8749 16.4713
head 11.5866 -5.27588 6.44444
rclavicle -2.3997e-014 -1.02374e-014
rhumerus -42.4857 21.0871 -102.97
rradius 140.975
rwrist 6.13734
rhand -26.2475 -6.19991
rfingers 7.12502
rthumb 0.306701 -36.1794
lclavicle -2.3997e-014 -1.02374e-014
lhumerus -94.9063 -14.8093 103.568
lradius 92.85
lwrist -6.25656
lhand -34.7796 8.76146
lfingers 7.12502
lthumb -7.93204 38.5926
rfemur 26.3427 -11.7767 20.8558
rtibia 18.3341
rfoot -151.331 -6.54527
rtoes -14.842
lfemur -34.1983 -2.07989 -12.7672
ltibia 39.164
lfoot -10.8272 -0.343672
ltoes -7.87729
204
root 5.53713 18.9452 -42.3472 -179.158 1.40349 -175.535
lowerback -3.85997 3.54054 0.737227
upperback -1.24577 4.75021 1.59715
thorax 0.80268 2.40778 1.43555
lowerneck -15.4652 -6.61727 -12.5937
upperneck 22.6964 -11.4761 15.5804
head 11.6342 -5.10487 6.05536
rclavicle 5.32122e-014 1.51076e-014
rhumerus -43.4901 22.8677 -103.333
rradius 141.89
rwrist 7.6392
rhand -26.437 -5.55339
rfingers 7.12502
rthumb 0.123655 -35.5331
lclavicle 5.32122e-014 1.51076e-014
lhumerus -94.8578 -14.1844 102.738
lradius 94.0398
lwrist -5.61602
lhand -35.2849 7.98831
lfingers 7.12502
lthumb -8.4197 37.8005
rfemur 26.3333 -11.3386 20.7632
rtibia 20.8007
rfoot -153.155 -8.81336
rtoes -14.4445
lfemur -33.7204 -3.13348 -12.6948
ltibia 35.2644
lfoot -8.19478 -0.366203
ltoes -6.38771
205
root 5.50992 19.0115 -42.8827 -179.295 1.31789 -175.615
lowerback -3.95653 3.5261 0.636371
upperback -1.2713 4.73178 1.49576
thorax 0.831178 2.39727 1.39277
lowerneck -15.5774 -6.5086 -12.4047
upperneck 23.0305 -11.3114 15.2372
head 11.7165 -5.04225 5.92701
rclavicle -8.88319e-015 -1.74931e-014
rhumerus -44.3631 23.9727 -103.328
rradius 142.383
rwrist 8.56243
rhand -26.0266 -4.77638
rfingers 7.12502
rthumb 0.520052 -34.7555
lclavicle -8.88319e-015 -1.74931e-014
lhumerus -94.336 -13.658 101.648
lradius 95.0261
lwrist -7.25419
lhand -34.8456 9.2411
lfingers 7.12502
lthumb -7.99577 39.0699
rfemur 25.8398 -10.7364 20.7739
rtibia 24.507
rfoot -154.691 -10.4832
rtoes -14.1945
lfemur -33.1977 -4.19191 -12.5245
ltibia 32.3946
lfoot -6.59704 -0.482888
ltoes -6.00204
206
root 5.47302 19.0608 -43.4197 -179.59 1.44222 -175.747
lowerback -3.94792 3.58965 0.570439
upperback -1.22862 4.81378 1.41249
thorax 0.870466 2.43564 1.34915
lowerneck -15.4191 -6.45335 -12.3734
upperneck 23.0781 -11.1968 15.0312
head 11.6649 -5.01406 5.86596
rclavicle 1.34552e-014 2.5842e-015
rhumerus -45.2136 24.4024 -103.171
rradius 142.408
rwrist 8.83279
rhand -25.9391 -4.42744
rfingers 7.12502
rthumb 0.604538 -34.4063
lclavicle 1.34552e-014 2.5842e-015
lhumerus -93.7194 -13.2233 101.038
lradius 95.8171
lwrist -7.69138
lhand -35.1448 9.29608
lfingers 7.12502
lthumb -8.28453 39.1136
rfemur 25.036 -10.3229 20.2916
rtibia 29.0889
rfoot -155.465 -11.2713
rtoes -14.7742
lfemur -32.5302 -5.7264 -12.3059
ltibia 30.5261
lfoot -6.18192 0.582912
ltoes -6.34864
207
root 5.43213 19.0738 -43.9453 -179.927 1.48005 -175.601
lowerback -3.72926 3.46597 0.667494
upperback -1.24949 4.65029 1.49125
thorax 0.731267 2.35519 1.3524
lowerneck -15.2924 -6.25227 -12.1933
upperneck 23.2333 -10.8829 14.6714
head 11.6068 -4.89889 5.7564
rclavicle -5.71506e-015 -5.76476e-015
rhumerus -46.1604 24.484 -102.998
rradius 141.88
rwrist 8.87194
rhand -25.6651 -4.45423
rfingers 7.12502
rthumb 0.869245 -34.4322
lclavicle -5.71506e-015 -5.76476e-015
lhumerus -92.8597 -12.3541 100.407
lradius 96.2006
lwrist -8.80232
lhand -35.6067 9.69308
lfingers 7.12502
lthumb -8.73026 39.4925
rfemur 23.8572 -10.0191 20.1058
rtibia 34.2924
rfoot -156.358 -11.851
rtoes -15.049
lfemur -31.9078 -6.76715 -12.038
ltibia 29.4974
lfoot -6.12368 2.2041
ltoes -6.49638
208
root 5.39062 19.0526 -44.4667 -180.398 1.44077 -175.381
lowerback -3.48415 3.40214 0.958957
upperback -1.10988 4.55398 1.59574
thorax 0.753505 2.30586 1.28305
lowerneck -15.2472 -6.12258 -12.1947
upperneck 23.3242 -10.6194 14.415
head 11.5698 -4.80254 5.70709
rclavicle 4.57702e-014 2.26615e-014
rhumerus -46.8879 23.7769 -102.477
rradius 140.904
rwrist 8.61182
rhand -25.3714 -4.71857
rfingers 7.12502
rthumb 1.15283 -34.6952
lclavicle 4.57702e-014 2.26615e-014
lhumerus -91.5318 -11.8395 100.16
lradius 96.7224
lwrist -8.36706
lhand -35.8209 10.2446
lfingers 7.12502
lthumb -8.937 40.0353
rfemur 22.5174 -9.81887 19.9848
rtibia 39.8531
rfoot -157.115 -12.3755
rtoes -15.267
lfemur -31.0686 -7.19849 -12.0179
ltibia 28.9812
lfoot -6.08572 4.35548
ltoes -6.385
209
root 5.35297 19.0033 -44.9832 -180.89 1.38013 -175.184
lowerback -2.77085 3.30624 1.49571
upperback -1.30734 4.43242 1.47486
thorax 0.204632 2.24308 0.803114
lowerneck -14.7171 -5.90983 -12.0695
upperneck 23.4128 -10.4317 14.3183
head 11.4491 -4.75737 5.68956
rclavicle 1.08835e-014 1.27222e-014
rhumerus -48.1275 22.2018 -102.396
rradius 139.571
rwrist 8.38538
rhand -25.141 -5.45033
rfingers 7.12502
rthumb 1.37534 -35.4256
lclavicle 1.08835e-014 1.27222e-014
lhumerus -90.6593 -11.5605 99.9374
lradius 97.4025
lwrist -7.43462
lhand -35.8197 10.9188
lfingers 7.12502
lthumb -8.93586 40.7095
rfemur 20.9783 -9.9683 19.5796
rtibia 45.6459
rfoot -157.571 -12.5719
rtoes -15.315
lfemur -29.9838 -6.51003 -12.4515
ltibia 28.8668
lfoot -5.70337 5.77082
ltoes -6.56671
